<svg width="68" height="39" viewBox="0 0 68 39" fill="none" xmlns="http://www.w3.org/2000/svg">
<g clip-path="url(#clip0_120_9)">
<path d="M15.8496 0C15.8496 0 34.3696 10.77 43.5396 16.11L51.5296 14.48L15.8496 0Z" fill="#40F4FF"/>
<path d="M59.8501 19.03L50.5801 22.79L52.5201 23.19C58.4901 20.77 62.7601 19.03 62.7601 19.03L52.5201 14.87L50.5801 15.27L59.8501 19.03Z" fill="#40F4FF"/>
<path d="M58.2696 19.03L49.5296 15.48L44.3096 16.55C46.8996 18.06 48.5696 19.03 48.5696 19.03L44.3096 21.51L49.5296 22.58C49.9596 22.41 56.1796 19.88 58.2696 19.03Z" fill="#40F4FF"/>
<path d="M51.5198 23.59L43.5298 21.96L15.8398 38.07C15.8398 38.07 37.6398 29.23 51.5198 23.6V23.59Z" fill="#40F4FF"/>
<path d="M12.42 21.57L16.79 19.03L12.42 16.5L0 19.03L12.42 21.57Z" fill="#163C5B"/>
<path d="M31.6698 19.03L23.4398 14.25L13.2998 16.32L17.9698 19.03L13.2998 21.75L23.4398 23.82L31.6698 19.03Z" fill="#247992"/>
<path d="M46.5498 19.03L34.4498 12L32.5498 12.39L43.9798 19.03L32.5498 25.68L34.4498 26.07L46.5498 19.03Z" fill="#32B7C8"/>
<path d="M42.7996 19.0301L31.6696 12.5601L24.3096 14.0701L32.8496 19.0301L24.3096 24.0001L31.6696 25.5001L42.7996 19.0301Z" fill="#32B7C8"/>
<path d="M67.0602 18.76L42.1302 8.64001L41.9102 9.19001L66.1702 19.03L41.9102 28.87L42.1302 29.42L67.0602 19.3C67.1702 19.25 67.2502 19.15 67.2502 19.03C67.2502 18.91 67.1802 18.8 67.0602 18.76Z" fill="#40F4FF"/>
</g>
<defs>
<clipPath id="clip0_120_9">
<rect width="67.24" height="38.07" fill="white"/>
</clipPath>
</defs>
</svg>
