<svg width="46" height="44" viewBox="0 0 46 44" fill="none" xmlns="http://www.w3.org/2000/svg">
<g clip-path="url(#clip0_120_2)">
<path d="M23 39.54L46 0L41.43 5.27L23 32.55L4.56 5.27L0 0L23 39.54Z" fill="#40F4FF"/>
<path d="M23.0003 31.49L38.7203 8.22998L23.0003 23.84L7.28027 8.22998L23.0003 31.49Z" fill="#2B98AD"/>
<path d="M22.9996 19.77L33.6096 9.57996L22.9996 16.42L12.3896 9.57996L22.9996 19.77Z" fill="#163C5B"/>
<path d="M1.92965 7.36998C1.96965 7.53998 2.05965 7.67998 2.14965 7.82998L2.39965 8.26998L2.90965 9.13998L4.93965 12.62L6.96965 16.1L7.47965 16.97L7.72965 17.41C7.81965 17.55 7.88965 17.7 8.00965 17.83L8.74965 18.57L9.11965 18.94L9.49965 19.3L1.38965 5.34998C1.54965 6.02998 1.74965 6.68998 1.92965 7.36998Z" fill="#40F4FF"/>
<path d="M23.5098 42.8001L28.9098 33.5101L31.6098 28.8701C32.6098 27.3801 33.1498 25.6201 33.7998 23.9301L22.9998 42.5001L20.2998 37.8601C20.4598 38.2901 20.6098 38.7101 20.7798 39.1401L21.2698 40.4101C21.4398 40.8301 21.5698 41.2701 21.8198 41.6501L22.4998 42.8101L23.0098 43.6901L23.5198 42.8101L23.5098 42.8001Z" fill="#40F4FF"/>
<path d="M40.02 14.34C40.09 14.32 40.11 14.26 40.14 14.22L40.22 14.07L40.39 13.78L41.07 12.62L41.75 11.46L41.92 11.17L42 11.02C42 11.02 42.06 10.93 42.05 10.86C42.01 10.58 41.98 10.3 41.91 10L39.21 14.64C39.5 14.55 39.75 14.44 40.02 14.34Z" fill="#40F4FF"/>
</g>
<defs>
<clipPath id="clip0_120_2">
<rect width="46" height="43.68" fill="white"/>
</clipPath>
</defs>
</svg>
