<svg width="46" height="44" viewBox="0 0 46 44" fill="none" xmlns="http://www.w3.org/2000/svg">
<path d="M23 4.14994L0 43.6899L4.57 38.4199L23 11.1399L41.44 38.4199L46 43.6899L23 4.14994Z" fill="#40F4FF"/>
<path d="M22.9997 12.2L7.27973 35.46L22.9997 19.85L38.7197 35.46L22.9997 12.2Z" fill="#2B98AD"/>
<path d="M23.0004 23.92L12.3904 34.11L23.0004 27.27L33.6104 34.11L23.0004 23.92Z" fill="#163C5B"/>
<path d="M44.0704 36.32C44.0304 36.15 43.9404 36.01 43.8504 35.86L43.6004 35.42L43.0904 34.55L41.0604 31.07L39.0304 27.59L38.5204 26.72L38.2704 26.28C38.1804 26.14 38.1104 25.99 37.9904 25.86L37.2504 25.12L36.8804 24.75L36.5004 24.39L44.6104 38.34C44.4504 37.66 44.2504 37 44.0704 36.32Z" fill="#40F4FF"/>
<path d="M22.4902 0.889889L17.0902 10.1799L14.3902 14.8199C13.3902 16.3099 12.8502 18.0699 12.2002 19.7599L23.0002 1.18989L25.7002 5.82989C25.5402 5.39989 25.3902 4.97989 25.2202 4.54989L24.7302 3.27989C24.5602 2.85989 24.4302 2.41989 24.1802 2.03989L23.5002 0.879887L22.9902 -0.000110626L22.4802 0.879887L22.4902 0.889889Z" fill="#40F4FF"/>
<path d="M5.98004 29.3499C5.91004 29.3699 5.89004 29.4299 5.86004 29.4699L5.78004 29.6199L5.61004 29.9099L4.93004 31.0699L4.25004 32.2299L4.08004 32.5199L4.00004 32.6699C4.00004 32.6699 3.94004 32.7599 3.95004 32.8299C3.99004 33.1099 4.02004 33.3899 4.09004 33.6899L6.79004 29.0499C6.50004 29.1399 6.25004 29.2499 5.98004 29.3499Z" fill="#40F4FF"/>
</svg>
