<svg version="1.1" id="Layer_1" xmlns="http://www.w3.org/2000/svg" xmlns:xlink="http://www.w3.org/1999/xlink" x="0px" y="0px"
	 width="100%" viewBox="0 0 696 438" enable-background="new 0 0 696 438" xml:space="preserve">
<path fill="none" opacity="1.000000" stroke="none" 
	d="
M695.000000,1.000003 
	C695.666687,1.332987 696.783630,1.547287 696.908997,2.022929 
	C697.196411,3.113435 697.000000,4.331453 697.000000,5.497709 
	C697.000000,149.946777 697.000000,294.395844 697.000000,438.922455 
	C465.000000,438.922455 233.000015,438.922455 1.000000,438.922455 
	C1.000000,407.245056 1.000000,375.589508 1.466985,343.466980 
	C113.126503,343.000000 224.319031,343.001038 335.511566,342.992218 
	C337.671143,342.992035 339.830750,342.875153 342.367737,342.629608 
	C342.830109,340.455872 342.989166,338.465210 342.989380,336.474579 
	C343.001312,224.649719 343.000000,112.824860 343.000000,1.000000 
	C346.030701,1.000000 349.061371,1.000000 352.546021,1.466985 
	C353.000000,113.129990 352.999054,224.326019 353.006897,335.522034 
	C353.007050,337.682678 353.110535,339.843292 353.338898,342.390747 
	C355.002655,342.851685 356.493347,342.990601 357.984009,342.990753 
	C468.488525,343.000854 578.993042,343.000610 689.497559,342.993347 
	C690.992249,342.993256 692.487000,342.893646 694.367432,342.665283 
	C694.835449,340.501678 694.989502,338.513245 694.989685,336.524841 
	C695.001282,224.683228 695.000000,112.841614 695.000000,1.000003 
M376.931091,409.967865 
	C382.914551,409.977844 388.899170,409.921875 394.881042,410.024902 
	C397.977173,410.078247 398.560547,408.833435 397.349396,405.869049 
	C391.651947,405.869049 386.058289,405.869049 380.324097,405.869049 
	C380.324097,401.766815 380.324097,398.059753 380.324097,393.997223 
	C384.771698,393.997223 388.900299,393.942230 393.026611,394.014557 
	C396.342194,394.072662 396.574829,392.617920 395.095184,389.764038 
	C390.180878,389.764038 385.262482,389.764038 380.386108,389.764038 
	C380.386108,385.643463 380.386108,381.936218 380.386108,377.897736 
	C386.047913,377.897736 391.327484,377.897736 396.673340,377.897736 
	C396.673340,376.163300 396.673340,374.784210 396.673340,373.891205 
	C389.591095,373.891205 382.811279,373.891205 375.489288,373.414246 
	C375.354462,385.231598 375.212311,397.048920 375.123718,408.866638 
	C375.121307,409.187744 375.696625,409.513184 376.931091,409.967865 
M339.486755,373.413544 
	C339.352600,385.230591 339.211121,397.047607 339.123138,408.864990 
	C339.120728,409.186890 339.694855,409.513062 340.927185,409.968964 
	C344.907745,409.980438 348.888580,410.027832 352.868774,409.995361 
	C359.819031,409.938629 366.659454,404.824921 367.725037,398.154572 
	C368.396759,393.949585 368.448700,389.480377 367.826385,385.270447 
	C366.740936,377.927063 361.514832,374.024719 353.958313,373.995270 
	C349.315582,373.977173 344.672943,373.925293 339.486755,373.413544 
M651.966064,394.120178 
	C652.519165,389.553650 649.054138,391.052368 646.990662,391.049988 
	C592.706177,390.986938 538.421570,391.000000 484.137024,391.000000 
	C482.510376,391.000000 480.883728,391.000000 479.164001,391.000000 
	C479.164001,392.674469 479.164001,393.828125 479.518860,395.749146 
	C480.176056,395.831573 480.833191,395.985992 481.490417,395.986145 
	C537.112488,395.998383 592.734619,396.004822 648.356628,395.957367 
	C649.516724,395.956390 650.676208,395.321136 651.966064,394.120178 
M232.728149,394.553528 
	C233.930069,389.575287 230.141815,391.046173 227.920700,391.043884 
	C173.039886,390.987518 118.159004,390.999756 63.278133,390.999756 
	C61.648308,390.999756 60.018486,390.999756 57.697720,390.999756 
	C58.217457,392.736115 58.562057,393.887360 59.428295,395.731079 
	C60.083496,395.819092 60.738678,395.984070 61.393902,395.984222 
	C117.088585,395.997559 172.783279,396.004181 228.477936,395.959534 
	C229.683319,395.958588 230.888229,395.358978 232.728149,394.553528 
M301.352356,400.807953 
	C305.453430,412.080139 321.714844,414.786652 328.968994,404.351135 
	C332.733398,398.935822 333.381683,392.747681 332.107544,386.071808 
	C330.163696,375.886475 319.528046,369.650726 309.316620,373.746368 
	C301.047333,377.063049 297.996918,389.342377 301.352356,400.807953 
M410.897583,385.386414 
	C408.963013,381.659119 409.902893,379.389130 413.975922,377.831909 
	C418.505219,376.100281 421.511078,377.941986 424.474915,380.941437 
	C425.478058,381.956604 426.869263,382.588318 428.083099,383.395294 
	C428.567047,382.960785 429.050964,382.526306 429.534882,382.091797 
	C428.686432,379.924469 428.365936,377.259979 426.885468,375.687805 
	C423.193542,371.767181 413.360016,371.441833 408.966553,374.606934 
	C401.975830,379.643127 402.494385,387.910187 410.270966,391.550964 
	C413.944092,393.270630 418.061523,394.014191 421.880035,395.458252 
	C425.317810,396.758301 426.261444,400.835541 423.960785,403.495575 
	C420.883484,407.053711 411.854889,407.114166 409.837921,403.010773 
	C408.107544,399.490570 406.086304,399.785126 403.278107,400.339233 
	C404.931061,406.828461 408.506561,410.490997 414.706635,410.891266 
	C422.095551,411.368347 428.880585,408.901703 430.321991,401.341125 
	C431.282135,396.304932 428.021667,392.400482 420.350739,389.689453 
	C417.319336,388.618103 414.402924,387.221466 410.897583,385.386414 
M269.591278,375.942963 
	C262.456390,381.499146 260.861023,394.293091 266.043701,403.070465 
	C269.017609,408.107025 275.625824,411.694366 280.512054,410.969452 
	C289.025726,409.706390 292.886536,406.268402 294.662476,398.201294 
	C292.990570,398.201294 291.363190,398.201294 289.745636,398.201294 
	C285.576019,407.583038 277.701202,407.669952 272.485352,402.693481 
	C268.453094,398.846313 267.420532,393.474792 268.897461,387.703217 
	C270.060974,383.156372 271.426056,378.999817 276.666840,378.066833 
	C283.417816,376.865051 287.006104,378.828766 289.792633,384.776367 
	C291.420898,384.776367 293.039215,384.776367 295.913055,384.776367 
	C293.521606,381.351288 292.058502,378.163483 289.657928,376.031097 
	C283.505310,370.565948 276.779358,371.627991 269.591278,375.942963 
z"/>
<path fill="#FFFFFF" opacity="1.000000" stroke="none" 
	d="
M353.165802,342.003937 
	C353.110535,339.843292 353.007050,337.682678 353.006897,335.522034 
	C352.999054,224.326019 353.000000,113.129990 353.000000,1.466985 
	C466.355347,1.000000 579.710693,1.000000 693.533020,1.468657 
	C693.998352,115.292358 693.996704,228.647400 693.526978,342.001617 
	C579.761169,342.001831 466.463470,342.002899 353.165802,342.003937 
M361.591583,334.600403 
	C363.069183,334.733612 364.546722,334.983154 366.024353,334.983398 
	C470.972321,335.001617 575.920288,335.005310 680.868286,334.953278 
	C682.566040,334.952454 684.263489,334.250946 685.992493,332.955078 
	C685.981262,225.349197 685.970032,117.743324 685.442932,9.472463 
	C683.806824,9.314975 682.170654,9.019980 680.534546,9.019639 
	C575.937256,8.997855 471.339966,9.028923 366.742859,8.902875 
	C362.174042,8.897369 360.893555,10.085324 360.899414,14.711405 
	C361.034210,121.140610 361.008759,227.570023 361.591583,334.600403 
z"/>
<path fill="#FFFFFF" opacity="1.000000" stroke="none" 
	d="
M1.000000,342.000000 
	C1.000000,228.405731 1.000000,114.811462 1.000000,1.000000 
	C114.355255,1.000000 227.710648,1.000000 341.533020,1.468657 
	C341.994507,115.289291 341.989014,228.641281 341.518280,341.995819 
	C227.702026,341.998932 114.351013,341.999451 1.000000,342.000000 
M334.639435,333.372986 
	C334.759613,331.893494 334.984802,330.414062 334.985046,328.934540 
	C335.001495,224.262421 335.003448,119.590294 334.967834,14.918173 
	C334.967316,13.326245 334.483429,11.734481 333.620117,9.510473 
	C332.151154,9.340309 330.682251,9.021502 329.213257,9.021177 
	C224.258011,8.997922 119.302750,9.019895 14.347586,8.923682 
	C10.361619,8.920029 8.903175,9.781772 8.908416,14.108603 
	C9.037547,120.729546 9.024140,227.350662 9.591947,334.593689 
	C11.068931,334.729126 12.545893,334.982880 14.022900,334.983124 
	C118.980858,335.001678 223.938828,335.004974 328.896759,334.956848 
	C330.620087,334.956055 332.343079,334.308563 334.639435,333.372986 
z"/>
<path fill="#4DA6F4" opacity="1.000000" stroke="none" 
	d="
M693.995117,342.002441 
	C693.996704,228.647400 693.998352,115.292358 694.000000,1.468657 
	C694.000000,1.000000 694.500000,1.000000 694.750000,1.000000 
	C695.000000,112.841614 695.001282,224.683228 694.989685,336.524841 
	C694.989502,338.513245 694.835449,340.501678 694.372986,342.455811 
	C693.992798,342.421570 693.995117,342.002441 693.995117,342.002441 
z"/>
<path fill="#4A99DE" opacity="1.000000" stroke="none" 
	d="
M341.983521,341.993256 
	C341.989014,228.641281 341.994507,115.289291 342.000000,1.468657 
	C342.000000,1.000000 342.500000,1.000000 342.750000,1.000000 
	C343.000000,112.824860 343.001312,224.649719 342.989380,336.474579 
	C342.989166,338.465210 342.830109,340.455872 342.368073,342.424744 
	C341.990997,342.402985 341.983521,341.993256 341.983521,341.993256 
z"/>
<path fill="#3A99EB" opacity="1.000000" stroke="none" 
	d="
M341.518280,341.995819 
	C341.983521,341.993256 341.990997,342.402985 341.990662,342.607849 
	C339.830750,342.875153 337.671143,342.992035 335.511566,342.992218 
	C224.319031,343.001038 113.126503,343.000000 1.466985,343.000000 
	C1.000000,343.000000 1.000000,342.500000 1.000000,342.250000 
	C114.351013,341.999451 227.702026,341.998932 341.518280,341.995819 
z"/>
<path fill="#FFFFFF" opacity="1.000000" stroke="none" 
	d="
M58.906662,395.038635 
	C58.562057,393.887360 58.217457,392.736115 57.697720,390.999756 
	C60.018486,390.999756 61.648308,390.999756 63.278133,390.999756 
	C118.159004,390.999756 173.039886,390.987518 227.920700,391.043884 
	C230.141815,391.046173 233.930069,389.575287 231.935272,394.784027 
	C173.730499,395.022552 116.318581,395.030579 58.906662,395.038635 
z"/>
<path fill="#FFFFFF" opacity="1.000000" stroke="none" 
	d="
M479.164001,394.981781 
	C479.164001,393.828125 479.164001,392.674469 479.164001,391.000000 
	C480.883728,391.000000 482.510376,391.000000 484.137024,391.000000 
	C538.421570,391.000000 592.706177,390.986938 646.990662,391.049988 
	C649.054138,391.052368 652.519165,389.553650 651.444336,394.557007 
	C593.669739,394.989838 536.416870,394.985809 479.164001,394.981781 
z"/>
<path fill="#FFFFFF" opacity="1.000000" stroke="none" 
	d="
M301.184570,400.438965 
	C297.996918,389.342377 301.047333,377.063049 309.316620,373.746368 
	C319.528046,369.650726 330.163696,375.886475 332.107544,386.071808 
	C333.381683,392.747681 332.733398,398.935822 328.968994,404.351135 
	C321.714844,414.786652 305.453430,412.080139 301.184570,400.438965 
M324.552155,401.900513 
	C327.942322,397.211212 327.172394,391.811676 326.891022,386.610657 
	C326.683533,382.775085 322.094299,378.364288 318.695831,377.996277 
	C312.275543,377.301086 307.669159,379.540344 306.063629,384.670715 
	C305.251770,387.264862 305.177307,390.127502 305.026917,392.882782 
	C304.744354,398.059814 306.924652,402.185913 311.413269,404.638580 
	C315.983551,407.135895 320.233307,405.651093 324.552155,401.900513 
z"/>
<path fill="#FFFFFF" opacity="1.000000" stroke="none" 
	d="
M411.165863,385.679688 
	C414.402924,387.221466 417.319336,388.618103 420.350739,389.689453 
	C428.021667,392.400482 431.282135,396.304932 430.321991,401.341125 
	C428.880585,408.901703 422.095551,411.368347 414.706635,410.891266 
	C408.506561,410.490997 404.931061,406.828461 403.278107,400.339233 
	C406.086304,399.785126 408.107544,399.490570 409.837921,403.010773 
	C411.854889,407.114166 420.883484,407.053711 423.960785,403.495575 
	C426.261444,400.835541 425.317810,396.758301 421.880035,395.458252 
	C418.061523,394.014191 413.944092,393.270630 410.270966,391.550964 
	C402.494385,387.910187 401.975830,379.643127 408.966553,374.606934 
	C413.360016,371.441833 423.193542,371.767181 426.885468,375.687805 
	C428.365936,377.259979 428.686432,379.924469 429.534882,382.091797 
	C429.050964,382.526306 428.567047,382.960785 428.083099,383.395294 
	C426.869263,382.588318 425.478058,381.956604 424.474915,380.941437 
	C421.511078,377.941986 418.505219,376.100281 413.975922,377.831909 
	C409.902893,379.389130 408.963013,381.659119 411.165863,385.679688 
z"/>
<path fill="#FFFFFF" opacity="1.000000" stroke="none" 
	d="
M340.030273,373.888580 
	C344.672943,373.925293 349.315582,373.977173 353.958313,373.995270 
	C361.514832,374.024719 366.740936,377.927063 367.826385,385.270447 
	C368.448700,389.480377 368.396759,393.949585 367.725037,398.154572 
	C366.659454,404.824921 359.819031,409.938629 352.868774,409.995361 
	C348.888580,410.027832 344.907745,409.980438 340.462585,409.446167 
	C340.008759,397.245087 340.019501,385.566833 340.030273,373.888580 
M344.001282,392.496490 
	C344.001282,396.913300 344.001282,401.330078 344.001282,405.744598 
	C351.629761,406.574646 358.410248,405.809174 361.783813,399.000244 
	C364.261139,394.000244 364.391937,387.974854 361.239685,382.905273 
	C357.144592,376.319427 350.554749,377.889557 344.001282,378.331085 
	C344.001282,382.926819 344.001282,387.215149 344.001282,392.496490 
z"/>
<path fill="#FFFFFF" opacity="1.000000" stroke="none" 
	d="
M269.867767,375.686584 
	C276.779358,371.627991 283.505310,370.565948 289.657928,376.031097 
	C292.058502,378.163483 293.521606,381.351288 295.913055,384.776367 
	C293.039215,384.776367 291.420898,384.776367 289.792633,384.776367 
	C287.006104,378.828766 283.417816,376.865051 276.666840,378.066833 
	C271.426056,378.999817 270.060974,383.156372 268.897461,387.703217 
	C267.420532,393.474792 268.453094,398.846313 272.485352,402.693481 
	C277.701202,407.669952 285.576019,407.583038 289.745636,398.201294 
	C291.363190,398.201294 292.990570,398.201294 294.662476,398.201294 
	C292.886536,406.268402 289.025726,409.706390 280.512054,410.969452 
	C275.625824,411.694366 269.017609,408.107025 266.043701,403.070465 
	C260.861023,394.293091 262.456390,381.499146 269.867767,375.686584 
z"/>
<path fill="#FFFFFF" opacity="1.000000" stroke="none" 
	d="
M376.031464,373.891205 
	C382.811279,373.891205 389.591095,373.891205 396.673340,373.891205 
	C396.673340,374.784210 396.673340,376.163300 396.673340,377.897736 
	C391.327484,377.897736 386.047913,377.897736 380.386108,377.897736 
	C380.386108,381.936218 380.386108,385.643463 380.386108,389.764038 
	C385.262482,389.764038 390.180878,389.764038 395.095184,389.764038 
	C396.574829,392.617920 396.342194,394.072662 393.026611,394.014557 
	C388.900299,393.942230 384.771698,393.997223 380.324097,393.997223 
	C380.324097,398.059753 380.324097,401.766815 380.324097,405.869049 
	C386.058289,405.869049 391.651947,405.869049 397.349396,405.869049 
	C398.560547,408.833435 397.977173,410.078247 394.881042,410.024902 
	C388.899170,409.921875 382.914551,409.977844 376.465210,409.445312 
	C376.010071,397.245605 376.020782,385.568390 376.031464,373.891205 
z"/>
<path fill="#3A9BF1" opacity="1.000000" stroke="none" 
	d="
M693.526978,342.001617 
	C693.995117,342.002441 693.992798,342.421570 693.987244,342.631042 
	C692.487000,342.893646 690.992249,342.993256 689.497559,342.993347 
	C578.993042,343.000610 468.488525,343.000854 357.984009,342.990753 
	C356.493347,342.990601 355.002655,342.851685 353.338898,342.390747 
	C466.463470,342.002899 579.761169,342.001831 693.526978,342.001617 
z"/>
<path fill="#4DA6F4" opacity="1.000000" stroke="none" 
	d="
M59.167480,395.384857 
	C116.318581,395.030579 173.730499,395.022552 231.617889,395.026581 
	C230.888229,395.358978 229.683319,395.958588 228.477936,395.959534 
	C172.783279,396.004181 117.088585,395.997559 61.393902,395.984222 
	C60.738678,395.984070 60.083496,395.819092 59.167480,395.384857 
z"/>
<path fill="#4DA6F4" opacity="1.000000" stroke="none" 
	d="
M479.341431,395.365479 
	C536.416870,394.985809 593.669739,394.989838 651.379272,394.987823 
	C650.676208,395.321136 649.516724,395.956390 648.356628,395.957367 
	C592.734619,396.004822 537.112488,395.998383 481.490417,395.986145 
	C480.833191,395.985992 480.176056,395.831573 479.341431,395.365479 
z"/>
<path fill="#479CE6" opacity="1.000000" stroke="none" 
	d="
M339.758484,373.651062 
	C340.019501,385.566833 340.008759,397.245087 339.999084,409.380310 
	C339.694855,409.513062 339.120728,409.186890 339.123138,408.864990 
	C339.211121,397.047607 339.352600,385.230591 339.758484,373.651062 
z"/>
<path fill="#479CE6" opacity="1.000000" stroke="none" 
	d="
M375.760376,373.652710 
	C376.020782,385.568390 376.010071,397.245605 376.000946,409.379700 
	C375.696625,409.513184 375.121307,409.187744 375.123718,408.866638 
	C375.212311,397.048920 375.354462,385.231598 375.760376,373.652710 
z"/>
<path fill="none" opacity="1.000000" stroke="none" 
	d="
M685.958740,10.137451 
	C685.970032,117.743324 685.981262,225.349197 685.513489,333.465363 
	C577.396973,333.964783 469.759491,333.953918 362.074219,333.480225 
	C362.026398,225.466309 362.026398,117.915230 362.026398,9.999969 
	C364.484741,9.999969 366.290192,9.999970 368.095642,9.999970 
	C472.386261,9.999970 576.676880,9.999331 680.967468,10.005687 
	C682.631226,10.005788 684.294983,10.091624 685.958740,10.137451 
M530.300720,174.213745 
	C532.559875,168.421219 534.855896,162.642761 537.071899,156.833786 
	C546.770142,131.411255 556.444397,105.979561 566.128906,80.551773 
	C573.537903,61.098907 580.924683,41.637535 588.384338,22.204123 
	C589.573975,19.104975 589.357666,16.371384 586.096497,15.183406 
	C582.722107,13.954172 581.102600,16.211433 579.997559,19.246204 
	C576.240906,29.563368 572.348328,39.831688 568.439575,50.092747 
	C556.303284,81.952431 544.142334,113.802734 531.973633,145.650040 
	C530.038391,150.714706 528.013672,155.745132 525.834778,161.288925 
	C520.045532,146.405960 514.515625,132.376266 509.124817,118.293365 
	C496.760651,85.993469 484.296997,53.729412 472.315491,21.287657 
	C470.455536,16.251602 468.059204,15.231251 462.704987,16.520811 
	C463.011780,18.692778 462.929443,21.097481 463.710052,23.178474 
	C472.403625,46.353539 481.217987,69.483360 490.024872,92.615814 
	C499.416077,117.282883 508.786224,141.958160 518.274963,166.587692 
	C520.600891,172.624908 522.157532,178.580780 522.121948,185.235687 
	C521.884094,229.733383 522.010315,274.232971 521.968567,318.731903 
	C521.966064,321.383331 522.021851,324.268463 525.171631,324.389771 
	C526.756653,324.450867 528.427673,322.279114 530.732727,320.571014 
	C530.820190,319.915924 530.983948,319.260895 530.984131,318.605774 
	C530.997620,271.911041 531.005249,225.216278 530.960327,178.521561 
	C530.959167,177.308334 530.373047,176.095657 530.300720,174.213745 
z"/>
<path fill="#52A7F2" opacity="1.000000" stroke="none" 
	d="
M685.700806,9.804956 
	C684.294983,10.091624 682.631226,10.005788 680.967468,10.005687 
	C576.676880,9.999331 472.386261,9.999970 368.095642,9.999970 
	C366.290192,9.999970 364.484741,9.999969 362.026398,9.999969 
	C362.026398,117.915230 362.026398,225.466309 361.797180,333.498901 
	C361.383026,333.986725 361.198090,333.993073 361.013153,333.999390 
	C361.008759,227.570023 361.034210,121.140610 360.899414,14.711405 
	C360.893555,10.085324 362.174042,8.897369 366.742859,8.902875 
	C471.339966,9.028923 575.937256,8.997855 680.534546,9.019639 
	C682.170654,9.019980 683.806824,9.314975 685.700806,9.804956 
z"/>
<path fill="#479CE6" opacity="1.000000" stroke="none" 
	d="
M361.302368,334.299896 
	C361.198090,333.993073 361.383026,333.986725 361.845001,333.961731 
	C469.759491,333.953918 577.396973,333.964783 685.497803,333.926025 
	C684.263489,334.250946 682.566040,334.952454 680.868286,334.953278 
	C575.920288,335.005310 470.972321,335.001617 366.024353,334.983398 
	C364.546722,334.983154 363.069183,334.733612 361.302368,334.299896 
z"/>
<path fill="#6DABE4" opacity="1.000000" stroke="none" 
	d="
M9.036161,333.971741 
	C9.024140,227.350662 9.037547,120.729546 8.908416,14.108603 
	C8.903175,9.781772 10.361619,8.920029 14.347586,8.923682 
	C119.302750,9.019895 224.258011,8.997922 329.213257,9.021177 
	C330.682251,9.021502 332.151154,9.340309 333.832214,9.816103 
	C334.044312,10.121733 333.876556,10.051096 333.417145,10.031511 
	C225.430603,10.011927 117.903481,10.011927 9.999899,10.011927 
	C9.999899,12.515603 9.999899,14.321026 9.999899,16.126450 
	C9.999894,120.395752 9.999291,224.665054 10.005353,328.934357 
	C10.005449,330.598053 10.087311,332.261780 9.857626,333.944702 
	C9.401544,333.966522 9.218852,333.969147 9.036161,333.971741 
z"/>
<path fill="#4D98DB" opacity="1.000000" stroke="none" 
	d="
M9.314054,334.282715 
	C9.218852,333.969147 9.401544,333.966522 10.315909,333.974701 
	C118.667213,333.970703 226.286835,333.955902 333.946533,333.945618 
	C333.986572,333.950165 334.066223,333.962891 334.066223,333.962891 
	C332.343079,334.308563 330.620087,334.956055 328.896759,334.956848 
	C223.938828,335.004974 118.980858,335.001678 14.022900,334.983124 
	C12.545893,334.982880 11.068931,334.729126 9.314054,334.282715 
z"/>
<path fill="#3B98E9" opacity="1.000000" stroke="none" 
	d="
M334.134705,10.132187 
	C334.483429,11.734481 334.967316,13.326245 334.967834,14.918173 
	C335.003448,119.590294 335.001495,224.262421 334.985046,328.934540 
	C334.984802,330.414062 334.759613,331.893494 334.352844,333.667938 
	C334.066223,333.962891 333.986572,333.950165 333.984741,333.482208 
	C333.988556,226.524536 333.994629,120.034828 333.994751,13.545120 
	C333.994751,12.380445 333.917664,11.215771 333.876556,10.051096 
	C333.876556,10.051096 334.044312,10.121733 334.134705,10.132187 
z"/>
<path fill="none" opacity="1.000000" stroke="none" 
	d="
M324.282471,402.182831 
	C320.233307,405.651093 315.983551,407.135895 311.413269,404.638580 
	C306.924652,402.185913 304.744354,398.059814 305.026917,392.882782 
	C305.177307,390.127502 305.251770,387.264862 306.063629,384.670715 
	C307.669159,379.540344 312.275543,377.301086 318.695831,377.996277 
	C322.094299,378.364288 326.683533,382.775085 326.891022,386.610657 
	C327.172394,391.811676 327.942322,397.211212 324.282471,402.182831 
z"/>
<path fill="none" opacity="1.000000" stroke="none" 
	d="
M344.001282,392.000000 
	C344.001282,387.215149 344.001282,382.926819 344.001282,378.331085 
	C350.554749,377.889557 357.144592,376.319427 361.239685,382.905273 
	C364.391937,387.974854 364.261139,394.000244 361.783813,399.000244 
	C358.410248,405.809174 351.629761,406.574646 344.001282,405.744598 
	C344.001282,401.330078 344.001282,396.913300 344.001282,392.000000 
z"/>
<path fill="#FFFFFF" opacity="1.000000" stroke="none" 
	d="
M530.059875,321.117065 
	C528.427673,322.279114 526.756653,324.450867 525.171631,324.389771 
	C522.021851,324.268463 521.966064,321.383331 521.968567,318.731903 
	C522.010315,274.232971 521.884094,229.733383 522.121948,185.235687 
	C522.157532,178.580780 520.600891,172.624908 518.274963,166.587692 
	C508.786224,141.958160 499.416077,117.282883 490.024872,92.615814 
	C481.217987,69.483360 472.403625,46.353539 463.710052,23.178474 
	C462.929443,21.097481 463.011780,18.692778 462.704987,16.520811 
	C468.059204,15.231251 470.455536,16.251602 472.315491,21.287657 
	C484.296997,53.729412 496.760651,85.993469 509.124817,118.293365 
	C514.515625,132.376266 520.045532,146.405960 525.834778,161.288925 
	C528.013672,155.745132 530.038391,150.714706 531.973633,145.650040 
	C544.142334,113.802734 556.303284,81.952431 568.439575,50.092747 
	C572.348328,39.831688 576.240906,29.563368 579.997559,19.246204 
	C581.102600,16.211433 582.722107,13.954172 586.096497,15.183406 
	C589.357666,16.371384 589.573975,19.104975 588.384338,22.204123 
	C580.924683,41.637535 573.537903,61.098907 566.128906,80.551773 
	C556.444397,105.979561 546.770142,131.411255 537.071899,156.833786 
	C534.855896,162.642761 532.559875,168.421219 530.161621,175.025116 
	C530.034973,224.263351 530.047424,272.690216 530.059875,321.117065 
z"/>
<path fill="#52A7F2" opacity="1.000000" stroke="none" 
	d="
M530.396301,320.844055 
	C530.047424,272.690216 530.034973,224.263351 530.041138,175.359589 
	C530.373047,176.095657 530.959167,177.308334 530.960327,178.521561 
	C531.005249,225.216278 530.997620,271.911041 530.984131,318.605774 
	C530.983948,319.260895 530.820190,319.915924 530.396301,320.844055 
z"/>
<path fill="none" opacity="1.000000" stroke="none" 
	d="
M333.417145,10.031511 
	C333.917664,11.215771 333.994751,12.380445 333.994751,13.545120 
	C333.994629,120.034828 333.988556,226.524536 333.944672,333.477661 
	C226.286835,333.955902 118.667213,333.970703 10.589300,333.955505 
	C10.087311,332.261780 10.005449,330.598053 10.005353,328.934357 
	C9.999291,224.665054 9.999894,120.395752 9.999899,16.126450 
	C9.999899,14.321026 9.999899,12.515603 9.999899,10.011927 
	C117.903481,10.011927 225.430603,10.011927 333.417145,10.031511 
M250.965530,158.371597 
	C255.839783,139.846817 260.676544,121.312073 265.597198,102.799637 
	C272.705231,76.057892 279.837799,49.322498 287.067108,22.613409 
	C287.887695,19.581648 288.449921,17.001457 284.572632,16.064655 
	C280.970673,15.194380 279.159149,16.959545 278.270142,20.419123 
	C275.988037,29.299789 273.487518,38.124084 271.114349,46.981625 
	C258.444763,94.268532 245.742004,141.546600 233.140320,188.851593 
	C222.964432,227.050415 212.915604,265.283081 202.546875,304.497589 
	C199.176804,292.440582 196.058441,281.429626 193.023193,270.395813 
	C185.857941,244.348511 178.663589,218.308716 171.661133,192.217560 
	C170.551926,188.084671 169.049759,183.377029 169.995209,179.485641 
	C175.290009,157.692627 181.240234,136.057846 187.043137,114.389534 
	C194.497330,86.555199 202.083832,58.756111 209.457199,30.900513 
	C210.613998,26.530300 210.944946,21.941492 211.628571,17.637545 
	C206.108612,16.134333 203.707932,17.233274 202.484573,21.903221 
	C195.140900,49.935726 187.495560,77.889030 180.023956,105.888252 
	C174.156418,127.876450 168.447189,149.906906 162.571411,171.892883 
	C154.751251,201.154312 146.836823,230.390533 138.964706,259.638092 
	C134.927094,274.639252 130.893417,289.641510 126.555031,305.769470 
	C124.983582,299.718567 123.748764,294.827179 122.442146,289.955078 
	C114.299744,259.593506 106.124016,229.240875 97.993919,198.876038 
	C92.107689,176.891708 86.310646,154.883469 80.409454,132.903198 
	C72.640358,103.965485 64.802803,75.046165 57.006363,46.115791 
	C54.707062,37.583725 52.295521,29.077324 50.239872,20.486313 
	C49.347370,16.756351 47.225452,15.131557 43.869179,16.223736 
	C40.880978,17.196138 40.771980,19.556463 41.717415,22.714022 
	C44.298866,31.335564 46.144573,40.173950 48.485119,48.871704 
	C56.270489,77.803116 64.195465,106.696991 71.969231,135.631485 
	C77.916290,157.766876 83.677597,179.952103 89.589607,202.096985 
	C97.697586,232.467499 105.878693,262.818481 114.009430,293.182922 
	C116.423927,302.199921 118.574013,311.295685 121.314056,320.211243 
	C121.901199,322.121704 124.340477,324.385223 126.246811,324.733582 
	C128.609634,325.165405 131.147079,323.852936 131.987839,320.649139 
	C140.632416,287.707520 149.351685,254.785416 158.102890,221.871902 
	C160.013657,214.685394 162.133789,207.554550 164.423218,199.458405 
	C165.940277,205.281479 167.123398,210.046432 168.423935,214.779114 
	C177.967621,249.508560 187.505295,284.239746 197.152771,318.940369 
	C197.894821,321.609406 198.225525,324.997375 202.449005,325.039673 
	C206.692108,325.082123 207.058914,321.677429 207.825867,319.021454 
	C210.232391,310.687592 212.303726,302.257324 214.531281,293.871399 
	C221.719360,266.810883 228.859726,239.737518 236.135635,212.700623 
	C240.942795,194.837448 245.951157,177.028397 250.965530,158.371597 
z"/>
<path fill="#FFFFFF" opacity="1.000000" stroke="none" 
	d="
M250.917496,158.783356 
	C245.951157,177.028397 240.942795,194.837448 236.135635,212.700623 
	C228.859726,239.737518 221.719360,266.810883 214.531281,293.871399 
	C212.303726,302.257324 210.232391,310.687592 207.825867,319.021454 
	C207.058914,321.677429 206.692108,325.082123 202.449005,325.039673 
	C198.225525,324.997375 197.894821,321.609406 197.152771,318.940369 
	C187.505295,284.239746 177.967621,249.508560 168.423935,214.779114 
	C167.123398,210.046432 165.940277,205.281479 164.423218,199.458405 
	C162.133789,207.554550 160.013657,214.685394 158.102890,221.871902 
	C149.351685,254.785416 140.632416,287.707520 131.987839,320.649139 
	C131.147079,323.852936 128.609634,325.165405 126.246811,324.733582 
	C124.340477,324.385223 121.901199,322.121704 121.314056,320.211243 
	C118.574013,311.295685 116.423927,302.199921 114.009430,293.182922 
	C105.878693,262.818481 97.697586,232.467499 89.589607,202.096985 
	C83.677597,179.952103 77.916290,157.766876 71.969231,135.631485 
	C64.195465,106.696991 56.270489,77.803116 48.485119,48.871704 
	C46.144573,40.173950 44.298866,31.335564 41.717415,22.714022 
	C40.771980,19.556463 40.880978,17.196138 43.869179,16.223736 
	C47.225452,15.131557 49.347370,16.756351 50.239872,20.486313 
	C52.295521,29.077324 54.707062,37.583725 57.006363,46.115791 
	C64.802803,75.046165 72.640358,103.965485 80.409454,132.903198 
	C86.310646,154.883469 92.107689,176.891708 97.993919,198.876038 
	C106.124016,229.240875 114.299744,259.593506 122.442146,289.955078 
	C123.748764,294.827179 124.983582,299.718567 126.555031,305.769470 
	C130.893417,289.641510 134.927094,274.639252 138.964706,259.638092 
	C146.836823,230.390533 154.751251,201.154312 162.571411,171.892883 
	C168.447189,149.906906 174.156418,127.876450 180.023956,105.888252 
	C187.495560,77.889030 195.140900,49.935726 202.484573,21.903221 
	C203.707932,17.233274 206.108612,16.134333 211.628571,17.637545 
	C210.944946,21.941492 210.613998,26.530300 209.457199,30.900513 
	C202.083832,58.756111 194.497330,86.555199 187.043137,114.389534 
	C181.240234,136.057846 175.290009,157.692627 169.995209,179.485641 
	C169.049759,183.377029 170.551926,188.084671 171.661133,192.217560 
	C178.663589,218.308716 185.857941,244.348511 193.023193,270.395813 
	C196.058441,281.429626 199.176804,292.440582 202.546875,304.497589 
	C212.915604,265.283081 222.964432,227.050415 233.140320,188.851593 
	C245.742004,141.546600 258.444763,94.268532 271.114349,46.981625 
	C273.487518,38.124084 275.988037,29.299789 278.270142,20.419123 
	C279.159149,16.959545 280.970673,15.194380 284.572632,16.064655 
	C288.449921,17.001457 287.887695,19.581648 287.067108,22.613409 
	C279.837799,49.322498 272.705231,76.057892 265.597198,102.799637 
	C260.676544,121.312073 255.839783,139.846817 250.917496,158.783356 
z"/>
</svg>